<svg xmlns="http://www.w3.org/2000/svg" version="1.1" xmlns:xlink="http://www.w3.org/1999/xlink" xmlns:svgjs="http://svgjs.dev/svgjs" width="128" height="128" viewBox="0 0 128 128"><g transform="matrix(0.8046875,0,0,0.8046875,12.41184074821259,12.814873242367177)"><svg viewBox="0 0 98 98" data-background-color="#990708" preserveAspectRatio="xMidYMid meet" height="127" width="128" xmlns="http://www.w3.org/2000/svg" xmlns:xlink="http://www.w3.org/1999/xlink"><g id="tight-bounds" transform="matrix(1,0,0,1,0.08387967645792571,0.08387967645792571)"><svg viewBox="0 0 97.83224064708415 97.83224064708415" height="97.83224064708415" width="97.83224064708415"><g><svg></svg></g><g><svg viewBox="0 0 97.83224064708415 97.83224064708415" height="97.83224064708415" width="97.83224064708415"><g><path d="M0 48.916c0-27.016 21.9-48.916 48.916-48.916 27.016 0 48.916 21.9 48.916 48.916 0 27.016-21.9 48.916-48.916 48.916-27.016 0-48.916-21.9-48.916-48.916zM48.916 94.049c24.926 0 45.133-20.207 45.133-45.133 0-24.926-20.207-45.133-45.133-45.133-24.926 0-45.133 20.207-45.133 45.133 0 24.926 20.207 45.133 45.133 45.133z" data-fill-palette-color="tertiary" fill="#ffffff" stroke="transparent"></path><ellipse rx="46.95947551060039" ry="46.95947551060039" cx="48.916120323542074" cy="48.916120323542074" fill="#ffffff" stroke="transparent" stroke-width="0" fill-opacity="1" data-fill-palette-color="tertiary"></ellipse></g><g transform="matrix(1,0,0,1,23.47539391502934,27.942726746862164)"><svg viewBox="0 0 50.88145281702547 41.94678715335982" height="41.94678715335982" width="50.88145281702547"><g><svg viewBox="0 0 50.88145281702547 41.94678715335982" height="41.94678715335982" width="50.88145281702547"><g><svg viewBox="0 0 50.88145281702547 41.94678715335982" height="41.94678715335982" width="50.88145281702547"><g id="textblocktransform"><svg viewBox="0 0 50.88145281702547 41.94678715335982" height="41.94678715335982" width="50.88145281702547" id="textblock"><g><svg viewBox="0 0 50.88145281702547 41.94678715335982" height="41.94678715335982" width="50.88145281702547"><g><svg viewBox="0 0 50.88145281702547 41.94678715335982" height="41.94678715335982" width="50.88145281702547"><g><svg xmlns="http://www.w3.org/2000/svg" xml:space="preserve" viewBox="5.238 13 89.762 74" x="0" y="0" height="41.94678715335982" width="50.88145281702547" class="icon-icon-0" data-fill-palette-color="quaternary" id="icon-0"><path d="M45 35h7V23h-7z m1-11h5v10h-5zM58 35h7V23h-7z m1-11h5v10h-5zM45 52h7V40h-7z m1-11h5v10h-5zM58 52h7V40h-7z m1-11h5v10h-5zM45 68h7V57h-7z m1-10h5v9h-5zM58 68h7V57h-7z m1-10h5v9h-5z" fill="#000000" data-fill-palette-color="quaternary"></path><path d="M95 40h-3v-6H71V13H39v31.389l-27 6.257-6.762 2.638 0.357 0.934L12 51.77V87h80V41h3z m-4-5v5H71v-5zM21 86V66h10v20z m18 0h-7V65H20v21h-7V51.44l26-6.026z m11 0v-9h10v9z m20 0h-9V76H49v10h-9V14h30v72m21 0H71V41h20z" fill="#000000" data-fill-palette-color="quaternary"></path></svg></g></svg></g></svg></g></svg></g></svg></g><g></g></svg></g></svg></g></svg></g><defs></defs></svg><rect width="97.83224064708415" height="97.83224064708415" fill="none" stroke="none" visibility="hidden"></rect></g></svg></g></svg>